<svg width="9.1587mm" height="9.1587mm" version="1.1" viewBox="0 0 9.1587 9.1587" xml:space="preserve" xmlns="http://www.w3.org/2000/svg"><rect x="1.7764e-15" width="9.1587" height="9.1587" rx="0" ry="4.4689" fill="none" opacity=".95" stroke-width=".26458"/><g transform="matrix(.036283 0 0 .036283 -.57837 -.54648)" fill="#111"><path d="m180.4 159.06c-10.925 0-19.782 8.856-19.782 19.781 0 10.926 8.857 19.782 19.782 19.782 10.927 0 19.784-8.856 19.784-19.782 0-10.925-8.857-19.781-19.784-19.781zm4.177 31.125c-2.303-3.299-6.307-5.058-10.33-4.45 3.513-2.055 5.525-5.939 5.246-9.951 2.301 3.299 6.31 5.06 10.33 4.45-3.512 2.055-5.528 5.94-5.246 9.951z"/><path d="m95.849 159.06c-10.925 0-19.782 8.856-19.782 19.781 0 10.926 8.857 19.782 19.782 19.782s19.782-8.856 19.782-19.782c0-10.925-8.857-19.781-19.782-19.781zm7.405 31.125c-2.301-3.299-6.306-5.058-10.328-4.45 3.51-2.055 5.526-5.939 5.245-9.951 2.301 3.299 6.309 5.06 10.331 4.45-3.511 2.055-5.528 5.94-5.248 9.951z"/><path d="m219.28 258.2h-154.25c-26.813 0-48.628-21.812-48.628-48.627v-4.287c0-20.209 12.683-38.199 31.065-45.347-2.249-4.969-3.416-10.364-3.416-15.929v-3.299c0-18.893 13.313-34.562 31.267-38.028-1e-3 -0.067-1e-3 -0.134-1e-3 -0.201 0-14.194 9.136-27.159 25.079-35.608l0.451-0.237 0.689-0.35c24.848-12.537 36.221-19.907 38.41-22.409 1.831-2.092 3.745-4.717 5.595-7.255 5.002-6.857 8.951-12.273 14.416-12.273 1.684 0 5.826 0.614 7.961 6.309 2.027 5.406 1.367 16.014-1.961 31.576 21.797 7.24 35.664 22.394 35.938 39.728 21.188 0.21 38.363 17.512 38.363 38.75v3.299c0 5.562-1.167 10.96-3.416 15.929 18.383 7.147 31.064 25.138 31.064 45.347v4.287c1e-3 26.811-21.813 48.625-48.626 48.625zm-113.08-181.32-0.159 0.084c-12.177 6.382-19.161 15.682-19.161 25.515 0 1.332 0.146 2.726 0.432 4.142l1.351 6.686-6.816 0.235c-14.709 0.509-26.232 12.441-26.232 27.167v3.299c0 5.776 1.792 11.296 5.185 15.964l5.238 7.209-8.718 1.843c-17.009 3.599-29.354 18.847-29.354 36.259v4.287c0 20.439 16.629 37.068 37.069 37.068h154.25c20.438 0 37.066-16.629 37.066-37.068v-4.287c0-17.412-12.346-32.66-29.354-36.259l-8.717-1.843 5.237-7.209c3.392-4.668 5.187-10.188 5.187-15.964v-3.299c0-14.994-12.199-27.192-27.194-27.192h-12.981l1.389-6.917c0.285-1.412 0.43-2.798 0.43-4.12 0-13.292-13.121-25.604-32.65-30.637l-5.479-1.413 1.295-5.508c2.688-11.415 3.872-19.889 4.025-25.069-0.932 1.22-1.867 2.505-2.649 3.579-2 2.742-4.067 5.578-6.237 8.056-4.131 4.723-18.229 13.174-41.902 25.117z"/><path d="m152.19 202.73c-0.677 5.004-3.228 7.996-5.294 7.996-2.073 0-4.62-2.992-5.298-7.998l-3.247 0.439-3.247-0.438c-0.677 5.004-3.228 7.996-5.298 7.996s-4.62-2.992-5.298-7.998l-6.494 0.878c1.09 8.053 5.938 13.676 11.792 13.676 3.353 0 6.369-1.851 8.544-4.935 2.177 3.088 5.192 4.935 8.545 4.935 5.851 0 10.702-5.623 11.788-13.676z"/></g></svg>
