<?xml version="1.0" encoding="UTF-8"?>
<svg class="css-1j8o68f" width="66.324" height="70.64" version="1.1" viewBox="0 0 100 106.51" xmlns="http://www.w3.org/2000/svg">
 <g transform="matrix(1.1573 0 0 1.1573 -5.5504 -2.2961)" fill="#ba2365" featurekey="2ou6gm-0">
  <path d="m29.356 19.444c-6.232 0-9.156 2.72-11.988 5.352-0.496 0.46-1.02 0.944-1.6 1.452-1.66 1.464-1.824 3.988-0.368 5.644 1.456 1.664 3.98 1.828 5.644 0.372 0.64-0.568 1.22-1.1 1.768-1.608 2.512-2.336 3.456-3.212 6.54-3.212 2.572 0 4.324 0.476 5.252 1.416 1.924 1.944 1.756 7.308 1.756 12.984v0.136c-20 2.18-31.564 20.292-31.564 33.508 0 18.523 17.308 18.523 24.696 18.523l10.864-0.031c2.208 0 4.004-1.785 4.004-4v-44.224c0-1.304 0.016-2.58 0.036-3.804 0.104-7.72 0.196-14.384-4.08-18.72-2.516-2.544-6.104-3.788-10.96-3.788zm0.148 66.572c-12.632 0-16.684-2.563-16.684-10.523 0-8.288 8.068-23.212 23.544-25.444v35.937z"/>
  <path d="m56.363 41.984v-36c0-2.208-1.791-4-4-4-2.207 0-4 1.792-4 4v84c0 2.211 1.792 4 4 4l17.261 0.031c4.636 0 9.944-0.211 14.22-2.752 4.885-2.912 7.36-8.216 7.36-15.771 0-12.763-14.408-31.316-34.841-33.508zm23.393 42.4c-2.527 1.509-6.561 1.632-10.132 1.632l-13.261-0.031v-35.945c15.969 2.196 26.841 17.096 26.841 25.452 0 6.136-1.968 8.016-3.448 8.892z"/>
 </g>
</svg>
