<?xml version="1.0" encoding="UTF-8" standalone="no"?>
<svg
   xmlns:dc="http://purl.org/dc/elements/1.1/"
   xmlns:cc="http://creativecommons.org/ns#"
   xmlns:rdf="http://www.w3.org/1999/02/22-rdf-syntax-ns#"
   xmlns:svg="http://www.w3.org/2000/svg"
   xmlns="http://www.w3.org/2000/svg"
   xmlns:xlink="http://www.w3.org/1999/xlink"
   xmlns:sodipodi="http://sodipodi.sourceforge.net/DTD/sodipodi-0.dtd"
   xmlns:inkscape="http://www.inkscape.org/namespaces/inkscape"
   width="1713.9589"
   height="326.42322"
   viewBox="0 0 1713.9589 326.42321"
   version="1.1"
   id="svg11"
   sodipodi:docname="Liputan6 (2019).svg"
   inkscape:version="0.92.4 (5da689c313, 2019-01-14)">
  <metadata
     id="metadata15">
    <rdf:RDF>
      <cc:Work
         rdf:about="">
        <dc:format>image/svg+xml</dc:format>
        <dc:type
           rdf:resource="http://purl.org/dc/dcmitype/StillImage" />
        <dc:title></dc:title>
      </cc:Work>
    </rdf:RDF>
  </metadata>
  <sodipodi:namedview
     pagecolor="#ffffff"
     bordercolor="#666666"
     borderopacity="1"
     objecttolerance="10"
     gridtolerance="10"
     guidetolerance="10"
     inkscape:pageopacity="0"
     inkscape:pageshadow="2"
     inkscape:window-width="1366"
     inkscape:window-height="745"
     id="namedview13"
     showgrid="false"
     fit-margin-top="0"
     fit-margin-left="0"
     fit-margin-right="0"
     fit-margin-bottom="0"
     inkscape:zoom="0.30243724"
     inkscape:cx="637.63377"
     inkscape:cy="173.64435"
     inkscape:window-x="-8"
     inkscape:window-y="-8"
     inkscape:window-maximized="1"
     inkscape:current-layer="svg11" />
  <defs
     id="defs7">
    <linearGradient
       inkscape:collect="always"
       id="linearGradient921">
      <stop
         style="stop-color:#ff6500;stop-opacity:1"
         offset="0"
         id="stop917" />
      <stop
         style="stop-color:#ff3400;stop-opacity:1"
         offset="1"
         id="stop919" />
    </linearGradient>
    <linearGradient
       id="a"
       x1="0"
       y1="0.5"
       y2="0.5">
      <stop
         offset="0%"
         stop-color="#F60"
         id="stop2" />
      <stop
         offset="100%"
         stop-color="#F30"
         id="stop4" />
    </linearGradient>
    <linearGradient
       inkscape:collect="always"
       xlink:href="#linearGradient921"
       id="linearGradient923"
       x1="11.084503"
       y1="140.30598"
       x2="382.84366"
       y2="140.30598"
       gradientUnits="userSpaceOnUse"
       gradientTransform="matrix(2.9062022,0,0,2.9062022,601.33825,-244.54596)" />
  </defs>
  <path
     id="path9"
     style="fill:url(#linearGradient923);fill-opacity:1;fill-rule:evenodd;stroke-width:11.46942234"
     d="m 1549.8693,165.0384 2.4235,0.0939 c 6.3731,0.46897 11.9608,2.76688 16.7518,6.91725 l 1.7616,1.6414 1.5036,1.61788 c 4.2187,4.91244 6.575,10.98553 7.035,18.23107 l 0.09,2.76691 -0.067,2.49724 c -0.4265,7.29242 -2.7265,13.50626 -6.9004,18.62966 l -1.6607,1.87586 -1.7615,1.70002 c -4.7911,4.33788 -10.3788,6.72966 -16.7519,7.21034 l -2.4235,0.0939 -2.4348,-0.0939 a 27.770072,29.017273 0 0 1 -16.7518,-7.36283 l -1.7615,-1.74683 -1.6383,-1.8759 a 29.497984,30.822788 0 0 1 -6.9004,-18.24275 l -0.09,-2.68481 0.079,-2.43868 c 0.4714,-7.97238 3.3213,-14.65517 8.5499,-20.00136 a 28.813551,30.107615 0 0 1 20.9481,-8.82829 z m 71.8094,-125.800138 h -71.4616 l -58.0871,81.295228 -2.8949,4.19725 c -2.8498,4.13863 -5.5203,8.07799 -8.0337,11.80618 l -2.4459,3.68141 -2.3114,3.58765 c -2.244,3.5993 -4.2525,7.15172 -6.0253,10.70412 l -1.6942,3.54074 -1.5484,3.55234 c -1.4586,3.55245 -2.6929,7.16347 -3.6914,10.80971 l -0.9201,3.65795 -0.7631,3.75167 c -0.6731,3.78693 -1.0995,7.76142 -1.2678,11.91177 l -0.09,4.20899 0.1012,4.45515 c 0.4264,10.27035 2.3338,19.81379 5.7447,28.60688 l 1.5596,3.7166 1.6943,3.63441 c 4.1178,8.31246 9.223,15.71038 15.338,22.15869 l 2.6704,2.71997 3.1417,2.9076 a 89.615974,93.640782 0 0 0 25.3802,15.6635 c 9.4474,3.86899 19.2427,6.03792 29.4082,6.51867 l 4.3759,0.10549 4.3085,-0.10549 a 90.715561,94.789752 0 0 0 25.0773,-4.95938 l 4.0617,-1.55929 3.9944,-1.73515 c 7.8542,-3.6345 15.0351,-8.23037 21.5204,-13.78761 l 3.1753,-2.86069 2.7153,-2.68486 a 83.366305,87.110429 0 0 0 15.4839,-22.02971 l 1.6943,-3.61099 1.5484,-3.72822 a 81.032497,84.671806 0 0 0 5.756,-28.31388 l 0.09,-4.37311 -0.079,-3.89242 a 78.182561,81.693873 0 0 0 -4.6451,-25.17172 l -1.2567,-3.3063 -1.5596,-3.62267 a 83.108246,86.840777 0 0 0 -11.7476,-19.16902 l -2.3563,-2.77862 -2.8387,-3.01309 a 77.823515,81.318705 0 0 0 -15.9664,-12.48618 l -3.5568,-1.9697 -3.6242,-1.79377 a 81.604728,85.269737 0 0 0 -18.3562,-6.04973 l -3.7139,-0.62131 z M 57.0214,59.882295 V 210.75203 h 101.79266 v 56.21656 H 0 V 59.882295 Z M 189.406,266.96859 h 55.17774 V 59.882295 H 189.406 Z M 345.40704,115.38201 h 49.02885 c 14.44542,0 21.47806,5.58392 21.47806,17.07246 0,13.69568 -6.22483,19.27962 -21.47806,19.27962 H 345.39751 V 115.39143 Z M 290.2293,59.882295 V 266.96859 h 55.17774 v -60.10265 h 49.02885 c 23.47383,0 41.41655,-1.43371 58.47543,-20.02478 13.32401,-14.11077 19.29225,-37.29535 19.29225,-54.01883 0,-21.78864 -9.75066,-45.350528 -23.71139,-57.272961 C 432.97286,62.230913 420.83679,59.891711 401.06938,59.891711 H 290.23883 Z m 335.38079,0 V 177.75783 c 0,8.67774 -0.55122,16.55373 -7.34624,25.02391 a 32.359634,32.117007 0 0 0 -0.87433,1.16016 c -3.30726,4.45206 -10.16883,13.72401 -32.63525,13.72401 -13.13392,0 -19.40628,-3.20699 -27.02815,-9.51717 -8.021,-6.64038 -11.91746,-16.58198 -11.91746,-30.39091 V 59.882295 H 495.13568 V 177.70121 c 0,30.98512 8.66722,53.21707 26.48643,67.97866 18.98811,15.71424 35.42928,21.28872 62.82805,21.28872 51.67088,0 68.61573,-21.9112 75.83845,-31.25868 0.5797,-0.75457 1.10241,-1.43366 1.58708,-2.02795 15.09167,-18.82687 16.31763,-36.48411 16.31763,-55.98075 V 59.891711 H 625.6196 Z m 78.48042,0 v 55.131845 h 69.35701 v 151.95445 h 55.53884 V 115.01414 h 71.94198 V 59.882295 Z m 284.20408,66.384545 18.64601,45.49203 h -37.34901 z m -29.1569,-66.384545 -1.57761,3.518219 -85.83622,203.568076 h 58.71304 l 16.41269,-39.90806 h 83.11811 l 16.5077,39.90806 h 58.7796 l -86.9481,-203.615214 -1.5681,-3.471081 z m 305.29251,0 V 172.45689 L 1171.0957,59.882295 h -50.9106 V 266.96859 h 55.5388 V 154.08271 l 93.325,112.88588 h 50.9296 V 59.882295 Z M 1642.2351,0 l 3.1901,0.0743 a 71.738834,71.738834 0 0 1 68.4597,68.37076 l 0.074,3.278981 V 254.68404 l -0.074,3.2049 a 71.738834,71.738834 0 0 1 -68.3707,68.45987 l -3.2791,0.0744 h -182.9896 l -3.1901,-0.0744 a 71.738834,71.738834 0 0 1 -68.4449,-68.37082 l -0.074,-3.29395 V 71.739019 l 0.074,-3.204931 A 71.738834,71.738834 0 0 1 1455.996,0.07435 L 1459.2752,5e-5 H 1642.25 Z"
     inkscape:connector-curvature="0" />
</svg>