<?xml version="1.0" encoding="utf-8"?>
<!-- Generator: Adobe Illustrator 16.0.0, SVG Export Plug-In . SVG Version: 6.00 Build 0)  -->
<!DOCTYPE svg PUBLIC "-//W3C//DTD SVG 1.0//EN" "http://www.w3.org/TR/2001/REC-SVG-20010904/DTD/svg10.dtd">
<svg version="1.0" id="Layer_1" xmlns="http://www.w3.org/2000/svg" xmlns:xlink="http://www.w3.org/1999/xlink" x="0px" y="0px"
	 width="300px" height="300px" viewBox="0 0 300 300" enable-background="new 0 0 300 300" xml:space="preserve">
<g>
	<rect fill="#CC0000" width="300" height="300"/>
	<g>
		<g>
			<path fill="#FFFFFF" d="M61.143,126.203c0-12.598,10.213-22.797,22.81-22.797h17.309V90.498h-17.45
				c-19.703,0-35.735,16.009-35.735,35.708c0,19.7,16.032,35.731,35.735,35.731l33.598-0.002c1.877,0,3.388-1.849,3.388-3.376V92.4
				c0-3.649,2.288-6.725,5.695-7.653c2.904-0.792,6.976,0.01,9.698,4.639c0.126,0.212,8.38,14.428,20.963,36.098
				c9.878,17.028,20.094,34.63,20.277,34.945c1.057,1.794,2.506,2.642,3.884,2.268c0.866-0.236,1.884-1.075,1.884-2.667V92.4
				c0.004-3.654,2.279-6.731,5.674-7.656c2.884-0.785,6.938,0.02,9.655,4.642c0.124,0.2,7.419,12.774,19.426,33.455
				c10.619,18.307,21.599,37.234,21.806,37.585c1.057,1.797,2.512,2.645,3.884,2.271c0.868-0.236,1.886-1.075,1.886-2.665V72.004
				h-12.957v52.56c0,0-21.636-37.251-22.63-38.939c-13.737-23.334-39.697-13.691-39.697,6.396v32.543
				c0,0-21.647-37.251-22.644-38.939c-13.735-23.334-39.691-13.691-39.696,6.396v53.356c0.008,1.941-1.451,3.634-3.576,3.635H83.953
				C71.356,149.013,61.143,138.802,61.143,126.203"/>
			<path fill="#FFFFFF" d="M250.696,72v87.626c0,3.648-2.288,6.727-5.692,7.654c-0.626,0.168-1.307,0.267-2.018,0.267
				c-2.582,0-5.546-1.275-7.684-4.904c-0.113-0.197-8.712-15.021-21.817-37.613c-9.455-16.291-19.229-33.12-19.409-33.43
				c-1.057-1.792-2.491-2.644-3.847-2.274c-0.858,0.236-1.863,1.075-1.863,2.671v67.629c0,3.648-2.288,6.727-5.69,7.654
				c-2.906,0.788-6.979-0.01-9.7-4.638c-0.112-0.188-8.105-13.965-20.297-34.973c-10.201-17.582-20.751-35.748-20.942-36.07
				c-1.058-1.794-2.511-2.644-3.884-2.27c-0.868,0.235-1.883,1.075-1.883,2.664l-0.002,66.156c0,4.554-4,8.55-8.558,8.55H83.812
				c-22.556,0-40.903-18.347-40.903-40.899c0-22.541,18.347-40.878,40.903-40.878h17.45V72H83.827C54.101,72,30,96.097,30,125.801
				c0,29.723,24.1,53.82,53.826,53.82h33.925c12.894,0.01,21.187-7.547,21.173-21.485v-30.698c0,0,21.644,37.278,22.643,38.964
				c13.733,23.337,39.693,13.691,39.693-6.397v-32.567c0,0,21.64,37.278,22.63,38.964c13.738,23.337,39.698,13.691,39.7-6.397V72
				H250.696z"/>
		</g>
	</g>
	<polygon fill="#FFFFFF" points="40.041,236.105 34.722,236.105 34.722,193.131 40.041,193.131 40.041,236.105 	"/>
	<path fill="#FFFFFF" d="M72.359,236.105h-5.068v-18.513c0.002-3.402,0.004-5.858-1.557-7.421c-0.918-0.92-2.536-1.492-4.219-1.492
		c-3.448,0-7.253,1.862-8.522,2.627v24.799h-5.071v-31.312h4.885v1.715c1.68-0.891,5.221-2.459,9.207-2.459
		c1.759,0,5.06,0.349,7.404,2.688c2.497,2.499,2.941,4.963,2.941,10.649V236.105L72.359,236.105z"/>
	<path fill="#FFFFFF" d="M90.966,236.731c-8.276,0-13.841-6.34-13.841-15.775c0-9.955,6.332-16.904,15.401-16.904
		c2.817,0,4.945,0.717,6.154,1.259v-12.161h5.132v42.954h-4.76v-1.673C97.453,235.4,94.588,236.731,90.966,236.731L90.966,236.731z
		 M92.527,208.678c-6.108,0-10.209,4.983-10.209,12.397c0,6.489,3.714,11.026,9.025,11.026c3.772,0,6.145-1.745,7.286-2.582
		l0.052-0.035v-19.096C96.771,209.254,94.702,208.678,92.527,208.678L92.527,208.678z"/>
	<path fill="#FFFFFF" d="M122.282,236.852c-8.638,0-14.221-6.435-14.221-16.398c0-9.965,5.703-16.403,14.529-16.403
		c8.562,0,14.095,6.535,14.095,16.649C136.686,230.512,131.03,236.852,122.282,236.852L122.282,236.852z M122.344,208.619
		c-5.521,0-9.089,4.594-9.089,11.708c0,7.006,3.762,11.896,9.151,11.896c5.688,0,9.087-4.354,9.087-11.65
		C131.493,213.646,127.646,208.619,122.344,208.619L122.344,208.619z"/>
	<path fill="#FFFFFF" d="M165.34,236.104h-5.064V217.58c0-3.402,0.004-5.854-1.555-7.408c-0.918-0.922-2.532-1.496-4.208-1.496
		c-3.435,0-7.242,1.862-8.511,2.631v24.797h-5.064v-31.306h4.878v1.711c1.687-0.891,5.219-2.457,9.197-2.457
		c1.753,0,5.046,0.349,7.386,2.687c2.497,2.497,2.941,4.961,2.941,10.647V236.104L165.34,236.104z"/>
	<path fill="#FFFFFF" d="M184.632,236.731c-8.824,0-14.529-6.319-14.529-16.094c0-10.079,5.63-16.591,14.343-16.591
		c7.574,0,12.467,5.949,12.467,15.158c0,0.128-0.052,2.656-0.052,2.656h-21.552c0.242,6.209,3.915,10.05,9.639,10.05
		c1.962,0,4.97-0.387,8.169-2.247l0.753-0.469l2.367,3.977C196.236,233.172,191.868,236.527,184.632,236.731L184.632,236.731z
		 M175.48,217.351h16.284c-0.204-4.126-2.207-8.797-7.257-8.797C179.66,208.554,176.067,212.076,175.48,217.351L175.48,217.351z"/>
	<path fill="#FFFFFF" d="M211.712,236.854c-5.814,0-10.267-2.865-10.881-3.477l0,0l2.22-3.932c0,0,4.237,2.782,8.407,2.782
		c4.086,0,6.529-1.718,6.529-4.591c0-3.223-3.274-4.42-6.159-5.48l-0.298-0.109l-0.614-0.229l-0.226-0.089
		c-4.378-1.724-8.512-3.356-8.512-9.148c0-5.023,4.382-8.528,10.655-8.528c6.005,0,9.86,3.049,9.885,3.077l0,0l-2.071,3.854
		l-0.659-0.376c-2.255-1.301-4.62-1.991-6.838-1.991c-2.871,0-5.777,1.319-5.777,3.841c0,2.695,2.101,3.522,5.002,4.667l0.397,0.155
		l0.62,0.246l0.792,0.312c4.014,1.575,8.997,3.534,8.997,9.421C223.182,233.179,218.785,236.854,211.712,236.854L211.712,236.854z"
		/>
	<polygon fill="#FFFFFF" points="234.438,236.107 229.371,236.107 229.371,204.794 234.438,204.794 234.438,236.107 	"/>
	<path fill="#FFFFFF" d="M241.341,207.464c0.988-0.816,4.976-3.482,11.086-3.482c3.667,0,6.555,1.035,8.587,3.067
		c2.213,2.212,2.571,4.491,2.571,9.091v19.964h-4.763v-1.76c-2.815,1.542-5.957,2.388-8.895,2.388l0,0
		c-6.151,0-10.286-3.932-10.286-9.785c0-10.47,13.529-10.47,17.972-10.47h0.896v-0.459c0-2.625-0.095-4.583-1.311-5.855
		c-1.021-1.023-2.775-1.543-5.211-1.543c-1.903,0-5.492,0.927-8.541,2.756L241.341,207.464z M257.493,220.86
		c-8.396,0-12.65,2.069-12.65,6.154c0,3.183,2.229,5.085,5.957,5.085c3.301,0,6.499-1.586,7.71-2.189v-9.05H257.493L257.493,220.86z
		"/>
	<path fill="#FFFFFF" d="M231.909,199.728c-1.912,0-3.467-1.557-3.467-3.471c0-1.912,1.555-3.471,3.467-3.471
		c1.914,0,3.473,1.559,3.473,3.471C235.382,198.171,233.823,199.728,231.909,199.728L231.909,199.728z"/>
</g>
</svg>
