<svg xmlns="http://www.w3.org/2000/svg" xmlns:xlink="http://www.w3.org/1999/xlink" width="137" height="41" viewBox="0 0 137 41">
    <defs>
        <path id="a" d="M.02.034h65.563v14.94H.02z"/>
        <path id="c" d="M.026.21h75.67v23.437H.025z"/>
    </defs>
    <g fill="none" fill-rule="evenodd">
        <g transform="translate(19 26)">
            <mask id="b" fill="#fff">
                <use xlink:href="#a"/>
            </mask>
            <path fill="#FFA724" d="M65.004 5.987C57.133 11.871 45.722 15 35.896 15 22.124 15 9.723 9.843.338 1.26-.398.585.258-.335 1.145.187 11.27 6.155 23.79 9.75 36.723 9.75c8.723 0 18.313-1.834 27.137-5.626 1.33-.572 2.446.888 1.144 1.863" mask="url(#b)"/>
        </g>
        <path fill="#FFA724" d="M89.225 27.48c-1.046-1.261-6.912-.597-9.548-.3-.798.09-.922-.567-.203-1.043 4.681-3.1 12.349-2.205 13.24-1.167.898 1.046-.236 8.295-4.621 11.754-.675.532-1.316.248-1.018-.454.988-2.324 3.197-7.526 2.15-8.79"/>
        <path fill="#333E48" d="M79.807 4.939V1.797a.778.778 0 0 1 .8-.796L94.758 1c.453 0 .816.328.816.793v2.694c-.004.453-.387 1.042-1.065 1.979l-7.33 10.414c2.72-.063 5.6.343 8.071 1.726.558.312.707.773.751 1.226v3.353c0 .461-.509.996-1.043.717-4.354-2.27-10.134-2.518-14.95.029-.492.26-1.007-.267-1.007-.73v-3.186c0-.51.01-1.382.527-2.16l8.492-12.124h-7.394c-.452 0-.815-.321-.818-.792M29.075 24H24.77a.81.81 0 0 1-.77-.725l.003-22.018c0-.441.372-.793.832-.793h4.009c.42.02.756.337.782.739v2.874h.081C30.752 1.297 32.721 0 35.373 0c2.692 0 4.38 1.297 5.586 4.077C42.004 1.297 44.376 0 46.907 0c1.809 0 3.778.741 4.983 2.41 1.366 1.853 1.086 4.54 1.086 6.903l-.004 13.895c0 .44-.371.792-.83.792h-4.3c-.433-.027-.773-.368-.773-.79V11.537c0-.926.08-3.243-.122-4.123-.321-1.483-1.286-1.901-2.531-1.901-1.045 0-2.13.695-2.573 1.807-.442 1.113-.402 2.965-.402 4.217v11.67c0 .44-.371.793-.83.793h-4.3c-.432-.027-.773-.368-.773-.79l-.004-11.673c0-2.456.401-6.07-2.652-6.07-3.095 0-2.974 3.521-2.974 6.07l-.002 11.67c0 .44-.372.793-.83.793M106.46 4.41c-3.088 0-3.283 4.226-3.283 6.863 0 2.635-.039 8.272 3.245 8.272 3.246 0 3.402-4.546 3.402-7.317 0-1.818-.079-4-.627-5.728-.469-1.5-1.407-2.09-2.737-2.09zM106.422 0C112.64 0 116 5.364 116 12.182c0 6.59-3.713 11.818-9.578 11.818C100.324 24 97 18.635 97 11.954 97 5.227 100.362 0 106.422 0zM124.873 24h-4.124a.792.792 0 0 1-.742-.79L120 1.183a.793.793 0 0 1 .795-.719h3.839c.362.02.66.274.736.616v3.368h.078c1.16-3.013 2.78-4.448 5.64-4.448 1.855 0 3.671.694 4.83 2.595C137 4.355 137 7.32 137 9.452v13.855a.794.794 0 0 1-.793.693h-4.15a.79.79 0 0 1-.736-.693V11.353c0-2.41.27-5.932-2.589-5.932-1.005 0-1.932.695-2.396 1.76-.58 1.344-.657 2.687-.657 4.172v11.855a.805.805 0 0 1-.806.792"/>
        <g>
            <mask id="d" fill="#fff">
                <use xlink:href="#c"/>
            </mask>
            <path fill="#333E48" d="M72.203 23.303c-.28.243-.684.26-1 .095-1.405-1.132-1.657-1.655-2.426-2.733-2.322 2.293-3.967 2.982-6.976 2.982-3.562 0-6.333-2.132-6.333-6.392 0-3.33 1.86-5.593 4.513-6.702 2.295-.977 5.502-1.155 7.957-1.421v-.533c0-.977.079-2.13-.516-2.973-.515-.755-1.504-1.066-2.375-1.066-1.613 0-3.048.801-3.4 2.462-.074.37-.352.736-.736.755l-4.1-.43c-.347-.077-.732-.346-.632-.859C57.122 1.667 61.615.21 65.64.21c2.059 0 4.75.532 6.373 2.042 2.06 1.864 1.86 4.35 1.86 7.058v6.388c0 1.923.825 2.765 1.597 3.8.27.374.33.817-.014 1.09-.863.702-2.399 1.995-3.244 2.724l-.01-.01zm-4.265-9.999c0 1.599.038 2.93-.793 4.35-.673 1.154-1.742 1.865-2.929 1.865-1.623 0-2.572-1.2-2.572-2.975 0-3.493 3.232-4.127 6.294-4.127v.887zM16.734 23.303c-.28.243-.684.26-1 .095-1.405-1.132-1.657-1.655-2.425-2.733-2.323 2.293-3.968 2.982-6.976 2.982C2.771 23.647 0 21.515 0 17.255c0-3.33 1.86-5.593 4.512-6.702 2.296-.977 5.502-1.155 7.956-1.421v-.533c0-.977.08-2.13-.514-2.973C11.44 4.87 10.45 4.56 9.58 4.56c-1.614 0-3.05.801-3.4 2.462-.074.37-.353.736-.736.755l-4.101-.43C.995 7.27.61 7 .71 6.487 1.652 1.667 6.145.21 10.172.21c2.059 0 4.75.532 6.373 2.042 2.058 1.864 1.861 4.35 1.861 7.058v6.388c0 1.923.823 2.765 1.597 3.8.269.374.33.817-.014 1.09-.864.702-2.4 1.995-3.245 2.724l-.01-.01zm-4.266-9.999c0 1.599.04 2.93-.791 4.35-.673 1.154-1.742 1.865-2.93 1.865-1.622 0-2.573-1.2-2.573-2.975 0-3.493 3.234-4.127 6.294-4.127v.887z" mask="url(#d)"/>
        </g>
    </g>
</svg>